<svg width="25" height="24" viewBox="0 0 25 24" fill="none" xmlns="http://www.w3.org/2000/svg">
<g opacity="0.5">
<path d="M19.4692 16.4339L20.7675 16.8396V15.4794V13.7397V13.1855L20.2975 12.8917L13.8087 8.83619V4.60625C13.8087 3.33198 12.7782 2.30147 11.5039 2.30147C10.2296 2.30147 9.19913 3.33198 9.19913 4.60625V8.83619L2.7103 12.8917L2.2403 13.1855V13.7397V15.4794V16.8396L3.53858 16.4339L9.19913 14.665V17.589L7.85942 18.5937L7.45942 18.8937V19.3937V20.6985V22.0243L8.73414 21.66L11.5039 20.8687L14.2737 21.66L15.5484 22.0243V20.6985V19.3937V18.8937L15.1484 18.5937L13.8087 17.589V14.665L19.4692 16.4339Z" fill="white" stroke="black" stroke-width="2"/>
</g>
</svg>
