<svg width="25" height="24" viewBox="0 0 25 24" fill="none" xmlns="http://www.w3.org/2000/svg">
<g opacity="0.5" clip-path="url(#clip0_1_3235)">
<path d="M22.6336 10.4598L18.4021 9.80784L15.8234 5.59519C15.688 5.37469 15.498 5.19286 15.2718 5.06729C15.0456 4.94172 14.7908 4.87667 14.5321 4.87842L3.72466 4.96453C3.41283 4.96717 3.10956 5.06687 2.857 5.24978C2.60444 5.43269 2.41512 5.68973 2.31536 5.98519L1.08723 9.62695V18H3.66564C3.86608 18.6516 4.27013 19.2217 4.81847 19.6267C5.36681 20.0317 6.03054 20.2503 6.71223 20.2503C7.39393 20.2503 8.05766 20.0317 8.606 19.6267C9.15434 19.2217 9.55839 18.6516 9.75883 18H14.5406C14.7411 18.6516 15.1451 19.2217 15.6935 19.6267C16.2418 20.0317 16.9055 20.2503 17.5872 20.2503C18.2689 20.2503 18.9327 20.0317 19.481 19.6267C20.0293 19.2217 20.4334 18.6516 20.6338 18H23.5872V11.5717C23.5885 11.3027 23.4928 11.0422 23.3176 10.838C23.1425 10.6338 22.8997 10.4995 22.6336 10.4598ZM10.8372 6.40781L14.544 6.37828L16.6112 9.75548L10.8372 9.75347V6.40781ZM3.73666 6.46444L9.33723 6.41981V9.75295L2.62853 9.75056L3.73666 6.46444ZM6.71223 18.75C6.37848 18.75 6.05222 18.651 5.77471 18.4656C5.4972 18.2802 5.28091 18.0166 5.15319 17.7083C5.02546 17.3999 4.99205 17.0606 5.05716 16.7333C5.12227 16.4059 5.28299 16.1053 5.51899 15.8693C5.75499 15.6333 6.05568 15.4725 6.38302 15.4074C6.71036 15.3423 7.04966 15.3757 7.35801 15.5035C7.66636 15.6312 7.92991 15.8475 8.11534 16.125C8.30076 16.4025 8.39973 16.7287 8.39973 17.0625C8.39924 17.5099 8.22129 17.9388 7.90493 18.2552C7.58857 18.5716 7.15964 18.7495 6.71223 18.75ZM17.5872 18.75C17.2535 18.75 16.9272 18.651 16.6497 18.4656C16.3722 18.2802 16.1559 18.0166 16.0282 17.7083C15.9005 17.3999 15.867 17.0606 15.9322 16.7333C15.9973 16.4059 16.158 16.1053 16.394 15.8693C16.63 15.6333 16.9307 15.4725 17.258 15.4074C17.5854 15.3423 17.9247 15.3757 18.233 15.5035C18.5414 15.6312 18.8049 15.8475 18.9903 16.125C19.1758 16.4025 19.2747 16.7287 19.2747 17.0625C19.2742 17.5099 19.0963 17.9388 18.7799 18.2552C18.4636 18.5716 18.0346 18.7495 17.5872 18.75ZM22.0872 16.5H20.724C20.5922 15.7639 20.2058 15.0977 19.6324 14.6178C19.0589 14.1379 18.335 13.8749 17.5872 13.8749C16.8395 13.8749 16.1155 14.1379 15.5421 14.6178C14.9687 15.0977 14.5822 15.7639 14.4505 16.5H9.84902C9.71724 15.7639 9.33082 15.0977 8.75737 14.6178C8.18393 14.1379 7.45999 13.8749 6.71223 13.8749C5.96448 13.8749 5.24054 14.1379 4.6671 14.6178C4.09365 15.0977 3.70723 15.7639 3.57545 16.5H2.58723V11.2512L18.0806 11.276L22.0872 11.8933V16.5Z" fill="black" stroke="black" stroke-width="0.5"/>
</g>
<defs>
<clipPath id="clip0_1_3235">
<rect width="24" height="24" fill="white" transform="translate(0.337234)"/>
</clipPath>
</defs>
</svg>
