<svg width="25" height="24" viewBox="0 0 25 24" fill="none" xmlns="http://www.w3.org/2000/svg">
<g opacity="0.5">
<path d="M22.6706 21H2.67057V19H3.67057V4C3.67057 3.73478 3.77593 3.48043 3.96346 3.29289C4.151 3.10536 4.40535 3 4.67057 3H18.6706C18.9358 3 19.1901 3.10536 19.3777 3.29289C19.5652 3.48043 19.6706 3.73478 19.6706 4V9H21.6706V19H22.6706V21ZM17.6706 19H19.6706V11H13.6706V19H15.6706V13H17.6706V19ZM17.6706 9V5H5.67057V19H11.6706V9H17.6706ZM7.67057 11H9.67057V13H7.67057V11ZM7.67057 15H9.67057V17H7.67057V15ZM7.67057 7H9.67057V9H7.67057V7Z" fill="black"/>
</g>
</svg>
