<svg width="25" height="24" viewBox="0 0 25 24" fill="none" xmlns="http://www.w3.org/2000/svg">
<g opacity="0.5">
<path d="M18.0039 10L15.0039 11.5L11.0039 8.5L10.0039 14L13.5039 17L14.0039 21.5M18.0039 8.5V21.5M10.0039 17L8.00391 21.5M8.50391 8.5C7.00391 9.5 6.00391 12 6.00391 12L8.00391 13M12.0039 6.5C12.5343 6.5 13.043 6.28929 13.4181 5.91421C13.7932 5.53914 14.0039 5.03043 14.0039 4.5C14.0039 3.96957 13.7932 3.46086 13.4181 3.08579C13.043 2.71071 12.5343 2.5 12.0039 2.5C11.4735 2.5 10.9648 2.71071 10.5897 3.08579C10.2146 3.46086 10.0039 3.96957 10.0039 4.5C10.0039 5.03043 10.2146 5.53914 10.5897 5.91421C10.9648 6.28929 11.4735 6.5 12.0039 6.5Z" stroke="black" stroke-width="2" stroke-linecap="round" stroke-linejoin="round"/>
</g>
</svg>
