<svg width="20" height="20" viewBox="0 0 20 20" fill="none" xmlns="http://www.w3.org/2000/svg">
<path d="M19.2875 6.77578L13.3367 5.91093L10.6766 0.517965C10.6039 0.370309 10.4844 0.250778 10.3367 0.178121C9.9664 -0.00469103 9.5164 0.147653 9.33125 0.517965L6.67109 5.91093L0.720311 6.77578C0.556248 6.79922 0.406248 6.87656 0.291404 6.99375C0.152565 7.13645 0.0760577 7.32843 0.0786945 7.52752C0.0813314 7.7266 0.162896 7.91649 0.305467 8.05547L4.61094 12.2531L3.59375 18.1805C3.56989 18.3183 3.58515 18.4602 3.63779 18.5898C3.69043 18.7195 3.77835 18.8318 3.89156 18.914C4.00478 18.9962 4.13878 19.0451 4.27836 19.055C4.41793 19.065 4.55751 19.0356 4.68125 18.9703L10.0039 16.1719L15.3266 18.9703C15.4719 19.0477 15.6406 19.0734 15.8023 19.0453C16.2102 18.975 16.4844 18.5883 16.4141 18.1805L15.3969 12.2531L19.7023 8.05547C19.8195 7.94062 19.8969 7.79062 19.9203 7.62656C19.9836 7.2164 19.6977 6.83672 19.2875 6.77578Z" fill="black"/>
</svg>
