<svg width="82" height="24" viewBox="0 0 82 24" fill="none" xmlns="http://www.w3.org/2000/svg">
<path d="M19.1758 0.96875V5.04688H12.2852V24H7.44141V5.04688H0.519531V0.96875H19.1758ZM29.1445 6.5625C29.2279 6.5625 29.2956 6.56771 29.3477 6.57812C29.4102 6.57812 29.5404 6.58333 29.7383 6.59375V11.1562C29.457 11.125 29.207 11.1042 28.9883 11.0938C28.7695 11.0833 28.5924 11.0781 28.457 11.0781C26.6654 11.0781 25.4622 11.6615 24.8477 12.8281C24.5039 13.4844 24.332 14.4948 24.332 15.8594V24H19.8477V6.96875H24.0977V9.9375C24.7852 8.80208 25.3841 8.02604 25.8945 7.60938C26.7279 6.91146 27.8112 6.5625 29.1445 6.5625ZM30.6914 24L36.5039 15.375L30.9414 7H36.3945L39.2383 11.9375L42.0195 7H47.3164L41.7227 15.2969L47.5352 24H41.9883L39.0508 18.8906L36.0977 24H30.6914ZM60.6758 6.96875H65.457L59.3164 24H54.6133L48.5039 6.96875H53.5039L57.0508 19.5312L60.6758 6.96875ZM72.5352 24H68.082V0.96875H72.5352V24ZM76.8164 19.3438H81.5508V24H76.8164V19.3438Z" fill="white"/>
</svg>
